<svg width="1400" height="517" viewBox="0 0 1400 517" fill="none" xmlns="http://www.w3.org/2000/svg">
<path opacity="0.06" d="M580.83 449C934.521 449 1220.74 120.653 1220.74 -285C1220.74 -690.653 934.521 -1020 580.83 -1020C227.138 -1020 -60.0859 -690.653 -60.0859 -285C-60.0859 120.653 227.138 449 580.83 449Z" fill="#1FC9C4"/>
<path opacity="0.06" d="M-84.12 859C269.571 859 556.796 530.653 556.796 125C556.796 -280.653 269.571 -610 -84.12 -610C-437.811 -610 -724.034 -280.653 -724.034 125C-724.034 530.653 -437.811 859 -84.12 859Z" fill="#1FC9C4"/>
<path opacity="0.06" d="M567.811 1564C921.503 1564 1207.73 1235.65 1207.73 830C1207.73 424.347 921.503 95 567.811 95C214.12 95 -73.1045 424.347 -73.1045 830C-73.1045 1235.65 214.12 1564 567.811 1564Z" fill="#1FC9C4"/>
<path opacity="0.06" d="M1110.59 359C1464.28 359 1751.5 30.6532 1751.5 -375C1751.5 -780.653 1464.28 -1110 1110.59 -1110C756.895 -1110 470.672 -780.653 470.672 -375C470.672 30.6532 756.895 359 1110.59 359Z" fill="#1FC9C4"/>
<path opacity="0.06" d="M1227.75 1593C1581.45 1593 1867.67 1264.65 1867.67 859C1867.67 453.347 1581.45 124 1227.75 124C874.063 124 586.838 453.347 586.838 859C586.838 1264.65 874.063 1593 1227.75 1593Z" fill="#1FC9C4"/>
<g opacity="0.15">
<path d="M391.56 602L406.581 -171L846.209 565L391.56 602Z" fill="#1FC9C4"/>
</g>
<g opacity="0.15">
<path d="M216.309 567L85.1216 -333L1104.58 -68L216.309 567Z" fill="#8CE5E1"/>
</g>
<g opacity="0.15">
<path d="M15.0215 772L769.099 -203L1148.64 599L15.0215 772Z" fill="#8CE5E1"/>
</g>
</svg>
