<svg width="89" height="52" viewBox="0 0 89 52" fill="none" xmlns="http://www.w3.org/2000/svg">
<path d="M16.9985 21.8185C16.9606 22.2702 18.6443 24.2034 21.3617 26.831C30.6705 35.7991 29.8401 36.1276 31.0101 35.8141C32.2624 35.4785 31.9575 35.0657 26.2359 29.0043C20.0972 22.5071 17.1702 20.2182 16.9985 21.8185Z" fill="#AC182E"/>
<path d="M20.7997 40.4219C20.6429 40.6935 20.8069 40.844 21.7857 41.4648C23.2494 42.3796 25.2814 42.3826 25.0385 41.4763C24.8233 40.7392 21.1496 39.8159 20.7997 40.4219Z" fill="#AC182E"/>
<path d="M19.5314 46.4312C10.8823 45.9229 7.95375 46.0011 7.1646 46.813C6.50932 47.4655 7.05903 47.6714 9.36343 47.6368C11.3283 47.5872 14.9637 47.7081 18.5552 47.9291C21.5005 48.1113 22.1532 48.0424 22.8361 47.5591C23.7639 46.869 23.0482 46.6369 19.5314 46.4312Z" fill="#AC182E"/>
<path d="M28.9524 14.359C28.9101 14.7942 30.7572 18.326 32.1213 20.4507C32.4527 20.9624 33.2126 22.3484 33.8074 23.5136C34.9464 25.787 35.0642 25.8969 36.0035 25.6453C36.8933 25.4068 36.9021 25.4396 34.7536 21.7059C31.015 15.2014 29.1165 12.7961 28.9524 14.359Z" fill="#AC182E"/>
<path d="M14.1064 36.864C15.6844 37.6775 16.3492 38.5768 17.5686 38.25C19.5295 37.7246 19.5766 37.5707 16.6052 35.8412C11.1013 32.6357 6.13627 30.7163 5.39655 31.515C4.70627 32.3005 8.44619 33.4707 14.1064 36.864Z" fill="#AC182E"/>
<path d="M72.8292 17.279C73.799 15.8888 74.3315 14.5805 74.1726 13.9872C73.9518 13.1633 72.8638 13.1897 72.1627 14.0664C67.4805 19.8601 63.2578 27.6323 64.4553 28.2122C65.6318 28.78 66.4362 27.8933 69.5706 22.5851C70.9591 20.2526 72.4211 17.8652 72.8292 17.279Z" fill="#AC182E"/>
<path d="M46.2798 10.2107C46.2149 12.0119 46.7384 16.0751 46.8996 24.9157C46.9292 26.674 46.9379 26.7068 47.5977 27.0598C48.1321 27.3405 48.9958 27.2682 49.3372 26.8942C49.6258 26.5872 49.2869 14.3148 48.882 10.1669C48.6976 8.55608 46.3443 8.1446 46.2798 10.2107Z" fill="#AC182E"/>
<path d="M82.0935 22.1263C77.4593 24.8693 69.3148 30.99 69.0291 31.9673C68.8211 32.6411 70.4378 32.8084 71.3338 32.1975L74.6553 29.8945C79.7644 26.3532 85.9236 21.5237 85.822 21.1447C85.598 20.3746 84.5929 20.6441 82.0935 22.1263Z" fill="#AC182E"/>
<path d="M59.4984 10.0421C59.3464 10.595 58.8548 12.122 57.2575 16.3119C56.5279 18.203 55.4995 22.0109 55.6055 22.4064C55.8174 23.1973 57.3255 19.8614 59.6826 13.3661C60.1887 11.9589 60.7168 10.634 60.8703 10.4163C61.5438 9.37039 59.7873 9.01095 59.4984 10.0421Z" fill="#AC182E"/>
</svg>
