<svg width="709" height="409" viewBox="0 0 709 409" fill="none" xmlns="http://www.w3.org/2000/svg">
<path d="M643.109 355.716C606.868 308.46 565.698 264.129 529.807 233.749C507.988 215.285 487.953 201.692 470.265 193.354C465.37 191.045 460.656 189.141 456.13 187.642C453.552 186.789 451.033 186.067 448.577 185.48C447.416 187.536 446.316 189.723 445.283 192.04C447.868 192.897 450.517 193.885 453.221 195.009C455.255 195.849 457.32 196.764 459.418 197.752C477.106 206.09 497.141 219.683 518.96 238.148C554.851 268.528 596.02 312.856 632.262 360.115L643.109 355.716Z" fill="#AC182E" fill-opacity="0.1"/>
<path d="M664.912 346.878C628.672 299.622 587.501 255.291 551.61 224.911C529.794 206.445 509.759 192.851 492.071 184.514C481.58 179.57 471.91 176.477 463.138 175.254C460.813 174.929 458.553 174.736 456.358 174.675C454.933 176.21 453.57 177.879 452.274 179.679C454.601 180.002 456.992 180.462 459.441 181.051C466.226 182.676 473.475 185.305 481.169 188.933C498.857 197.271 518.892 210.864 540.709 229.33C576.599 259.71 617.77 304.041 654.011 351.297L664.912 346.878Z" fill="#AC182E" fill-opacity="0.1"/>
<path d="M686.72 338.04C650.477 290.781 609.307 246.45 573.416 216.071C551.6 197.604 531.565 184.011 513.877 175.673C497.802 168.097 483.659 164.873 471.703 166.043C469.637 166.246 467.638 166.58 465.703 167.046C464.014 168.049 462.393 169.19 460.834 170.46C462.901 170.257 465.031 170.19 467.226 170.251C477.723 170.542 489.689 173.831 502.975 180.093C520.663 188.43 540.698 202.024 562.514 220.49C598.405 250.87 639.576 295.2 675.818 342.459L686.72 338.04Z" fill="#AC182E" fill-opacity="0.1"/>
<path d="M708.471 329.221C672.228 281.962 631.059 237.634 595.169 207.254C573.352 188.788 553.318 175.194 535.629 166.857C516.078 157.638 499.385 154.864 486.012 158.603C484.575 159.006 483.176 159.482 481.815 160.033L470.968 164.431C472.332 163.879 473.731 163.402 475.165 163.001C488.538 159.262 505.23 162.041 524.782 171.255C542.47 179.593 562.505 193.186 584.322 211.652C620.212 242.032 661.383 286.363 697.624 333.619L708.471 329.221Z" fill="#AC182E" fill-opacity="0.1"/>
<path d="M411.211 189.132C410.735 189.245 410.27 189.363 409.801 189.494C408.365 189.897 406.966 190.374 405.602 190.926C404.993 191.173 404.395 191.435 403.799 191.712C385.394 200.287 373.933 223.298 369.609 260.328C369.003 265.533 368.536 271.011 368.211 276.768C371.652 280.977 374.927 284.767 378.045 288.144C378.403 284.3 378.678 280.181 378.883 275.777C378.935 274.632 378.993 273.495 379.058 272.369C381.548 228.262 392.345 200.343 411.211 189.132Z" fill="#AC182E" fill-opacity="0.1"/>
<path d="M432.986 180.308C432.503 180.423 432.027 180.547 431.552 180.679C430.113 181.079 428.716 181.559 427.355 182.109C426.746 182.356 426.144 182.617 425.547 182.894C424.366 183.447 423.21 184.056 422.087 184.726L422.085 184.728C420.408 185.726 418.793 186.855 417.245 188.118C400.941 201.409 391.723 229.295 389.784 271.358C389.579 275.789 389.299 279.934 388.941 283.797C388.486 288.735 387.901 293.219 387.184 297.274C390.11 299.923 392.876 302.134 395.5 303.911C396.493 300.666 397.354 297.007 398.073 292.916C399.359 285.669 400.222 277.059 400.686 266.938C402.439 228.895 410.149 202.446 423.67 187.906C425.09 186.381 426.573 184.986 428.12 183.72C429.678 182.45 431.299 181.31 432.986 180.308Z" fill="#AC182E" fill-opacity="0.1"/>
<path d="M460.062 168.85L449.16 173.269C448.552 173.516 447.95 173.777 447.355 174.056C446.175 174.605 445.023 175.214 443.9 175.885C442.211 176.888 440.585 178.028 439.026 179.302C437.472 180.573 435.978 181.975 434.555 183.513C433.134 185.038 431.777 186.699 430.488 188.491C419.49 203.738 413.16 228.491 411.59 262.517C410.861 278.393 409.154 290.549 406.387 299.539C406.089 300.508 405.778 301.44 405.454 302.335C404.701 304.421 403.877 306.308 402.978 307.989C405.328 308.921 407.543 309.425 409.631 309.508C411.182 307.95 412.592 305.98 413.86 303.609C414.766 301.916 415.6 300.015 416.358 297.914C419.679 288.705 421.687 275.681 422.492 258.098C423.874 228.088 428.964 205.292 437.693 189.868C438.853 187.812 440.081 185.887 441.371 184.095C442.669 182.294 444.029 180.627 445.459 179.092C446.884 177.557 448.376 176.152 449.93 174.881C451.491 173.609 453.113 172.469 454.805 171.464C455.929 170.796 457.081 170.187 458.259 169.635C458.851 169.358 459.454 169.096 460.062 168.85Z" fill="#AC182E" fill-opacity="0.1"/>
<path d="M481.811 160.032L470.964 164.43C470.355 164.677 469.753 164.939 469.161 165.216C467.98 165.769 466.826 166.376 465.703 167.046C464.014 168.049 462.393 169.19 460.834 170.46C459.28 171.731 457.785 173.138 456.358 174.675C454.933 176.21 453.57 177.879 452.274 179.679C450.976 181.48 449.744 183.411 448.577 185.48C447.416 187.536 446.316 189.723 445.283 192.04C438.571 207.106 434.593 227.685 433.396 253.677C432.588 271.262 430.581 284.285 427.259 293.494C424.501 301.141 420.765 306.09 416.116 308.256C415.911 308.354 415.7 308.444 415.491 308.529L426.338 304.131C426.549 304.048 426.758 303.956 426.965 303.86C431.614 301.694 435.35 296.745 438.108 289.099C441.428 279.887 443.435 266.864 444.245 249.281C445.258 227.299 448.26 209.187 453.221 195.009C454.126 192.422 455.095 189.968 456.13 187.642C457.167 185.314 458.272 183.116 459.441 181.051C460.608 178.987 461.842 177.053 463.138 175.254C464.436 173.453 465.798 171.788 467.226 170.251C468.655 168.716 470.145 167.313 471.703 166.043C473.264 164.771 474.888 163.633 476.579 162.633C477.693 161.968 478.837 161.364 480.008 160.818C480.604 160.541 481.202 160.279 481.811 160.032Z" fill="#AC182E" fill-opacity="0.1"/>
<path d="M360.977 330.629C360.324 330.894 359.651 331.107 358.96 331.263C357.739 331.543 356.47 331.66 355.152 331.608C344.497 331.2 330.575 319.901 311.843 296.574C293.633 273.906 273.157 242.885 251.48 210.042C227.385 173.538 202.467 135.788 179.196 107.466C167.495 93.2269 157.03 82.4012 147.699 74.9186C144.9 72.6755 142.204 70.7301 139.603 69.0857C138.532 72.242 137.613 75.6512 136.85 79.3143C139.729 81.6218 142.714 84.2507 145.813 87.1957C152.754 93.7997 160.254 102.014 168.347 111.862C191.62 140.186 216.537 177.934 240.633 214.441C262.31 247.283 282.786 278.305 300.991 300.972C322.047 327.186 337.022 338.207 348.113 335.662C348.802 335.503 349.475 335.29 350.128 335.025L350.445 334.895L360.977 330.629Z" fill="#00FFB2" fill-opacity="0.1"/>
<path d="M382.783 321.789C382.127 322.055 381.457 322.267 380.766 322.423C379.535 322.705 378.255 322.822 376.926 322.766C374.838 322.683 372.625 322.182 370.272 321.251C367.932 320.328 365.455 318.979 362.83 317.199C354.646 311.653 345.036 301.919 333.646 287.736C315.439 265.066 294.963 234.044 273.286 201.202C249.189 164.699 224.273 126.948 201.002 98.6259C182.323 75.8918 166.794 61.8694 154.001 56.2389C151.676 55.2181 149.447 54.4729 147.3 54.0033C145.953 55.7762 144.71 57.7192 143.575 59.8307C143.424 60.1088 143.278 60.388 143.133 60.6741C145.486 61.7099 147.93 63.0318 150.469 64.6408C161.737 71.7658 174.868 84.5121 190.098 103.047C213.371 131.367 238.287 169.119 262.384 205.621C284.058 238.465 304.537 269.485 322.744 292.155C337.808 310.91 349.759 321.89 359.402 325.684C361.741 326.605 363.945 327.104 366.024 327.185C367.353 327.241 368.633 327.125 369.865 326.842C370.553 326.688 371.225 326.475 371.879 326.21L382.783 321.789Z" fill="#00FFB2" fill-opacity="0.1"/>
<path d="M404.589 312.949C403.933 313.215 403.263 313.426 402.574 313.586C401.34 313.869 400.06 313.986 398.729 313.927C396.641 313.845 394.426 313.341 392.074 312.41C389.721 311.484 387.234 310.126 384.596 308.332C381.975 306.553 379.206 304.344 376.282 301.698C373.407 299.098 370.381 296.074 367.192 292.619C363.501 288.625 359.594 284.055 355.452 278.896C337.245 256.226 316.77 225.207 295.094 192.364C270.995 155.859 246.079 118.108 222.808 89.7858C197.227 58.6548 177.559 43.8572 162.72 44.5818C162.524 44.5899 162.331 44.6032 162.139 44.6166C160.195 44.7694 158.321 45.0394 156.521 45.4389C154.873 46.4756 153.316 47.6613 151.853 49.0012C153.868 48.9041 155.975 49.0957 158.167 49.577C172.143 52.6232 189.82 67.3236 211.904 94.2068C235.178 122.527 260.093 160.278 284.19 196.781C305.866 229.628 326.343 260.645 344.551 283.315C352.295 292.957 359.216 300.543 365.425 306.156C368.332 308.787 371.085 310.984 373.694 312.752C376.332 314.546 378.819 315.904 381.172 316.83C383.522 317.762 385.735 318.263 387.825 318.348C389.157 318.403 390.439 318.289 391.672 318.005C392.359 317.847 393.031 317.634 393.685 317.37L404.589 312.949Z" fill="#00FFB2" fill-opacity="0.1"/>
<path d="M426.338 304.131C425.684 304.396 425.012 304.609 424.323 304.768C423.098 305.049 421.83 305.166 420.509 305.112C418.423 305.032 416.212 304.533 413.86 303.61C411.512 302.684 409.024 301.331 406.387 299.539C403.765 297.765 400.999 295.558 398.073 292.916C395.187 290.305 392.146 287.269 388.941 283.797C385.807 280.408 382.517 276.6 379.058 272.369C378.444 271.62 377.825 270.855 377.201 270.078C374.71 266.978 372.181 263.724 369.609 260.328C353.374 238.893 335.557 211.898 316.842 183.547C292.746 147.04 267.829 109.292 244.557 80.968C218.642 49.4304 198.795 34.6559 183.889 35.8015C179.798 36.116 176.019 36.9768 172.557 38.3805L161.71 42.7789C165.172 41.3752 168.951 40.5144 173.04 40.1972C187.946 39.0516 207.793 53.8261 233.71 85.3664C256.981 113.688 281.899 151.438 305.995 187.945C327.672 220.788 348.146 251.806 366.354 274.476C366.978 275.253 367.597 276.018 368.211 276.768C371.652 280.977 374.926 284.767 378.045 288.144C381.251 291.619 384.297 294.66 387.184 297.274C390.11 299.923 392.876 302.134 395.5 303.911C398.138 305.705 400.625 307.063 402.978 307.989C405.328 308.921 407.543 309.426 409.631 309.508C410.964 309.565 412.244 309.448 413.475 309.166C414.165 309.007 414.837 308.794 415.491 308.529L426.338 304.131Z" fill="#00FFB2" fill-opacity="0.1"/>
<path d="M107.195 64.876L96.3481 69.2744C95.8241 69.4879 95.3044 69.7137 94.7918 69.95C87.9053 73.1585 82.3522 78.6362 78.2144 86.3289C71.9383 97.9899 68.7317 114.908 68.678 136.605C68.6364 154.147 70.6487 174.789 74.6608 197.968C81.2268 235.911 91.0912 268.393 91.9905 271.31L102.837 266.912C101.94 263.997 92.0755 231.515 85.5095 193.572C81.4974 170.394 79.486 149.747 79.5268 132.209C79.5787 110.509 82.7871 93.5942 89.0614 81.9306C92.4527 75.6323 96.7908 70.8175 102.037 67.5194C103.195 66.7877 104.394 66.1353 105.641 65.5543C106.151 65.3153 106.671 65.0895 107.195 64.876Z" fill="#AC182E" fill-opacity="0.1"/>
<path d="M129.001 56.0357L118.099 60.455C117.572 60.6702 117.053 60.896 116.542 61.135C115.288 61.7169 114.08 62.3789 112.914 63.1158C111.274 64.1473 109.722 65.3295 108.261 66.6606C105.059 69.5724 102.29 73.1902 99.9628 77.5113C93.6911 89.1732 90.4827 106.088 90.4282 127.79C90.3874 145.328 92.3988 165.974 96.4109 189.153C102.977 227.096 112.844 259.576 113.739 262.493L124.643 258.072C123.746 255.157 113.878 222.677 107.315 184.732C103.303 161.553 101.289 140.908 101.33 123.37C101.384 101.669 104.593 84.7539 110.864 73.092C112.008 70.971 113.256 69.0174 114.612 67.2348C116.01 65.3943 117.521 63.7371 119.142 62.2623L119.145 62.2606C120.61 60.9189 122.17 59.7315 123.819 58.6948C124.982 57.9596 126.193 57.2959 127.446 56.714C127.957 56.475 128.474 56.2509 129.001 56.0357Z" fill="#AC182E" fill-opacity="0.1"/>
<path d="M145.617 49.8598C143.627 50.2938 141.72 50.882 139.904 51.6191C139.379 51.83 138.859 52.0558 138.348 52.2948C137.095 52.8767 135.887 53.5387 134.721 54.2756C133.072 55.3124 131.515 56.498 130.049 57.8397C128.418 59.3214 126.899 60.9909 125.494 62.8436C124.149 64.6192 122.906 66.5623 121.769 68.6711C121.626 68.937 121.484 69.2055 121.344 69.4767C115.348 81.108 112.289 97.7421 112.234 118.949C112.194 136.487 114.205 157.134 118.217 180.312C124.783 218.256 134.65 250.736 135.545 253.653L146.449 249.232C145.552 246.317 135.685 213.837 129.121 175.891C125.109 152.713 123.095 132.068 123.136 114.53C123.179 97.9903 125.051 84.2323 128.718 73.4602C129.747 70.4348 130.917 67.6465 132.229 65.0952C132.374 64.8091 132.52 64.53 132.671 64.2518C133.806 62.1404 135.048 60.1973 136.399 58.4226C137.801 56.5716 139.32 54.9021 140.951 53.4204C142.414 52.0805 143.971 50.8948 145.617 49.8598Z" fill="#AC182E" fill-opacity="0.1"/>
<path d="M172.557 38.3804L161.71 42.7788C161.184 42.9896 160.665 43.2154 160.154 43.4545C158.898 44.0381 157.687 44.7018 156.521 45.4387C154.873 46.4755 153.315 47.6611 151.852 49.0011C150.221 50.4828 148.702 52.1522 147.3 54.0032C145.952 55.7762 144.71 57.7193 143.574 59.8307C143.424 60.1089 143.278 60.388 143.133 60.6741C141.814 63.2377 140.638 66.041 139.603 69.0857C138.532 72.242 137.613 75.6512 136.85 79.3143C135.008 88.1455 134.066 98.4344 134.04 110.109C133.996 127.649 136.01 148.294 140.023 171.472C146.586 209.417 156.453 241.897 157.351 244.812L168.199 240.416C167.3 237.499 157.436 205.017 150.87 167.074C146.858 143.896 144.845 123.253 144.887 105.711C144.903 99.0903 145.212 92.9142 145.813 87.1956C146.273 82.8324 146.902 78.7371 147.699 74.9185C148.466 71.2335 149.389 67.8067 150.469 64.6408C151.503 61.6004 152.681 58.7954 154.001 56.2389C154.141 55.9677 154.28 55.7009 154.423 55.435C155.563 53.313 156.814 51.3603 158.166 49.5768C159.571 47.7284 161.088 46.0634 162.72 44.5817C164.186 43.247 165.742 42.0587 167.389 41.0264C168.55 40.293 169.75 39.6362 171.001 39.0561C171.513 38.8197 172.033 38.5939 172.557 38.3804Z" fill="#AC182E" fill-opacity="0.1"/>
</svg>
