<svg width="244" height="74" viewBox="0 0 244 74" fill="none" xmlns="http://www.w3.org/2000/svg">
<path d="M243.096 39.2913C243.096 3.32879 188.432 -8.17921 85.8185 5.72629C9.0985 16.2753 -11.0396 28.2628 5.26343 53.6763C28.2794 87.7208 243.096 75.2538 243.096 39.2913Z" fill="#2D9D9C" fill-opacity="0.2"/>
<path d="M223.501 41.3662C224.37 41.0283 225.225 41.5168 225.978 42.7735C227.023 44.4891 226.933 45.0184 225.666 44.7134C224.527 44.443 222.73 41.6612 223.501 41.3662Z" fill="#1FC9C4"/>
<path d="M224.313 38.6608C224.425 38.2413 226.043 38.2077 226.571 38.6259C227.459 39.3135 231.906 45.244 232.266 45.5134C233.146 46.1645 231.418 46.5487 230.37 45.9395C229.415 45.3723 224.192 39.1127 224.313 38.6608Z" fill="#1FC9C4"/>
<path d="M233.375 23.4304C232.16 23.1223 231.95 22.6162 232.877 22.1901C234.678 21.3411 235.936 21.2285 236.736 21.8579C237.685 22.579 235.013 23.8349 233.375 23.4304Z" fill="#1FC9C4"/>
<path d="M214.053 20.0864C213.177 19.869 211.819 18.4157 212.05 17.9414C212.47 17.0853 214.277 17.5696 215.003 18.7327C215.793 19.9819 215.477 20.4507 214.053 20.0864Z" fill="#1FC9C4"/>
<path d="M229.918 22.0025C228.258 21.8693 228.579 21.125 231.275 18.8726C236.244 14.7215 237.801 13.7548 238.561 14.339C239.585 15.0978 231.65 22.1209 229.918 22.0025Z" fill="#1FC9C4"/>
<path d="M206.026 12.9893C206.726 13.54 211.57 19.0233 212.731 20.5625C212.985 20.9072 211.75 21.0606 210.945 20.7756C210.139 20.4905 209.876 20.247 207.151 17.1821C205.545 15.368 204.053 13.7057 203.85 13.4956C202.883 12.4582 204.799 12.0203 206.026 12.9893Z" fill="#1FC9C4"/>
<path d="M206.875 35.5105C207.963 34.9371 209.294 34.8096 209.538 35.2554C209.692 35.5214 209.102 35.9167 208.153 36.1641C206.627 36.568 205.731 36.1031 206.875 35.5105Z" fill="#1FC9C4"/>
<path d="M211.458 27.3815C210.708 26.6962 210.758 26.5714 212.002 25.867C215.811 23.7225 220.153 17.5873 222.508 11.058C223.362 8.70982 226.215 7.03555 225.874 13.0841C225.454 20.7198 227.064 29.038 229.233 30.4321C230.692 31.3765 230.225 32.4101 228.547 31.9604C226.062 31.2946 223.944 33.1311 221.592 38.0355C220.063 41.2233 217.606 46.134 217.436 46.3824C217.021 46.963 214.529 47.4195 215.098 42.9714C215.917 36.6878 214.328 29.9666 211.458 27.3815ZM214.449 27.3872C216.605 29.9887 218.254 34.3565 218.184 37.3298C218.172 38.0185 218.376 37.9692 218.717 37.2131C220.427 33.3475 222.415 31.2859 225.016 30.6164L226.021 30.3497C224.359 27.2581 223.548 26.0895 222.881 17.7994C222.854 17.4464 222.825 17.4904 221.721 19.2873C219.646 22.7091 217.581 24.9923 215.35 26.3488C214.227 27.0512 214.198 27.0953 214.449 27.3872Z" fill="#1FC9C4"/>
<path d="M212.123 37.2279C212.517 37.6276 212.319 37.8512 210.481 39.2264C207.259 41.632 205.742 42.1941 205.163 41.1915C204.892 40.7209 205.176 40.434 207.514 38.7429C210.41 36.6479 211.262 36.3745 212.123 37.2279Z" fill="#1FC9C4"/>
</svg>
