<svg width="54" height="64" viewBox="0 0 54 64" fill="none" xmlns="http://www.w3.org/2000/svg">
<path d="M15.1054 17.1077C12.556 17.97 10.1381 7.13366 12.4228 5.0938C13.2535 4.33269 14.2929 4.57482 14.9105 5.67C17.6716 10.3729 17.7696 16.1981 15.1054 17.1077Z" fill="#AC182E"/>
<path d="M26.5066 17.2833C25.1874 18.238 19.949 19.2227 19.5803 18.5775C18.7524 17.0875 22.7787 15.3081 26.5411 15.4533C27.584 15.5126 27.5501 16.5213 26.5066 17.2833Z" fill="#AC182E"/>
<path d="M17.5149 31.8082C15.5799 32.0933 13.9595 23.5726 15.6244 21.8674C16.315 21.1877 17.9313 21.0104 18.3509 21.5873C21.1161 25.2859 20.6108 31.352 17.5149 31.8082Z" fill="#AC182E"/>
<path d="M18.6637 35.684C19.5928 36.0034 19.9371 36.8955 20.9287 41.7678C21.9906 47.1165 18.1334 52.5208 15.541 40.7064C14.7765 37.1692 16.2048 34.8906 18.6637 35.684Z" fill="#AC182E"/>
<path d="M6.46034 21.3926C3.63326 22.0221 2.59358 21.7799 3.02228 20.5609C3.49735 19.2439 11.6878 17.0333 12.2668 18.0734C12.923 19.2238 10.7881 20.4204 6.46034 21.3926Z" fill="#AC182E"/>
<path d="M43.8909 30.203C46.7644 29.4754 48.0602 28.9803 48.9175 29.4319C50.4999 30.2633 47.4998 32.1956 43.5625 32.9278C39.7101 33.6171 39.9931 31.2031 43.8909 30.203Z" fill="#AC182E"/>
<path d="M26.1143 46.2047C28.1035 45.6683 31.3859 45.0326 31.9734 45.0981C34.5319 45.3294 31.5591 47.6532 27.5886 48.5728C22.5596 49.7396 21.1756 47.5711 26.1143 46.2047Z" fill="#AC182E"/>
<path d="M23.1659 52.205C26.0468 56.0691 25.4572 61.3569 22.0934 61.8525C20.7538 62.0499 17.9554 55.6493 18.5984 53.8209C19.0735 52.5039 22.5151 51.2972 23.1659 52.205Z" fill="#AC182E"/>
<path d="M37.6384 35.656C38.8508 34.5954 40.5686 34.2814 41.0486 35.0623C41.6531 36.0682 42.8374 41.2163 42.6021 41.8897C42.1821 43.1681 38.7449 44.4045 38.2132 43.4792C37.4195 42.0146 36.9644 36.242 37.6384 35.656Z" fill="#AC182E"/>
<path d="M7.21331 50.4495C8.47898 48.9248 16.1223 47.1295 16.7355 48.1949C17.4389 49.4599 15.5883 50.5234 11.039 51.437C6.72788 52.3155 5.84172 52.0811 7.21331 50.4495Z" fill="#AC182E"/>
<path d="M38.0217 19.2668C39.4559 19.2988 40.9551 26.3774 39.9032 28.114C39.0201 29.552 35.8536 31.3872 35.3552 27.385C34.6321 21.6519 34.3959 19.2231 38.0217 19.2668Z" fill="#AC182E"/>
<path d="M28.1052 32.4681C29.4464 31.6622 35.2259 30.841 35.5264 31.4355C36.221 32.641 33.9799 33.9444 30.2588 34.4927C26.508 35.0454 25.4527 34.0755 28.1052 32.4681Z" fill="#AC182E"/>
</svg>
