<svg width="877" height="278" viewBox="0 0 877 278" fill="none" xmlns="http://www.w3.org/2000/svg">
<path d="M288.851 276.167C323.375 273.29 374.201 269.933 401.053 268.015C455.237 264.658 463.389 257.466 435.578 236.847C412.083 219.585 258.643 211.914 208.296 225.82C129.178 247.877 186.717 283.839 288.851 276.167Z" fill="#2D9D9C" fill-opacity="0.2"/>
<path d="M248.576 64.2254C248.576 44.0864 192.474 18.1925 159.388 22.508C156.991 22.9875 137.811 24.9055 116.713 27.303C7.38706 38.811 -27.6174 64.2245 22.2506 96.8305C50.5411 115.052 248.576 86.7619 248.576 64.2254Z" fill="#2D9D9C" fill-opacity="0.2"/>
<path d="M617.787 39.2913C617.787 3.32879 563.123 -8.17921 460.51 5.72629C383.79 16.2753 363.652 28.2628 379.955 53.6763C402.971 87.7208 617.787 75.2538 617.787 39.2913Z" fill="#2D9D9C" fill-opacity="0.2"/>
<path d="M868.086 202.806C858.496 194.175 682.04 191.774 626.418 199.926C578.948 207.118 566.002 222.946 596.211 237.331C614.911 246.441 651.352 239.728 839.796 225.343C878.635 221.987 884.389 217.67 868.086 202.806Z" fill="#2D9D9C" fill-opacity="0.2"/>
</svg>
