<svg width="349" height="114" viewBox="0 0 349 114" fill="none" xmlns="http://www.w3.org/2000/svg">
<path opacity="0.1" fill-rule="evenodd" clip-rule="evenodd" d="M341 3.56325C300.133 45.1632 103.067 69.2299 9.26667 27.6299C0.600001 23.7633 0 23.6299 0 25.4966C0 27.0966 6.26667 31.4966 12.6667 34.2966L17.2 36.2966C18.4667 83.4966 18.9333 98.1632 22 98.1632C23.5333 98.1632 23.5333 98.1632 28.6 91.1632C37.4 79.0299 44.4667 70.0299 51.7333 57.6966C58.6667 45.8966 56.9333 46.6966 70 49.0299L78.3333 50.4966C81.4667 71.7632 91.8 111.297 91.8 111.363C93.4 117.497 98 110.03 135.2 54.4966C141.667 54.2299 146 54.8299 146 54.8299C146 54.8966 156.533 74.7632 161.8 89.5632C164.4 96.8299 171.067 111.497 171.933 111.83C175.6 113.23 185.133 97.8299 193.133 77.4966C196.6 68.7632 203.8 52.2299 204.467 51.6299C204.667 51.3632 209.333 50.8299 218.267 49.6966C223.267 57.3633 227.933 64.3632 232.8 72.4966C237.733 80.7632 249 96.6966 252.133 102.363C258.933 114.563 266.067 98.6966 274.467 52.8966C277.267 37.4299 276.067 39.3632 284.467 37.1632L291.467 35.2966C336.067 77.2299 320.533 60.8299 335.2 74.9632C353.6 92.6299 344.133 51.6966 341.267 21.4966L340.4 12.4966C344.2 8.76324 346.6 6.42991 347.933 4.89658C350.667 1.56325 347.933 -3.50342 341 3.56325ZM334.667 17.0972C334.667 20.8306 341.6 72.1632 340.8 72.1632C339.533 72.1632 330.8 60.6299 296.067 33.6299C327.6 22.8966 334.667 15.1639 334.667 17.0972ZM52.4 46.2966C52.9333 46.9632 43.6667 58.4299 31.6667 77.4966C24.2667 89.2299 24.8 88.4972 24.3333 88.0972C24.1333 87.8972 23.7333 77.6972 23.3333 65.4306C22.5333 38.6306 21.8667 38.1632 22.1333 38.1632C22.2 38.1632 52.2667 46.1632 52.4 46.2966ZM272.667 40.5632C272.667 40.6299 256.533 99.8966 256.467 99.9632C256.4 100.03 223.8 49.0299 223.867 49.0299C224.133 48.9633 229.8 48.0966 236.4 47.1632C271.4 42.0299 272.667 39.0966 272.667 40.5632ZM129.133 54.4966C122.133 64.7632 109.267 83.4966 102.467 94.1632C95.2667 105.563 95.4 105.497 93.6 96.3633C87.5333 65.3633 87.4 62.4972 84.3333 52.7639C83.4667 50.0306 85.4667 52.4299 129.133 54.4966ZM171.333 98.4966C171.333 98.4299 151.333 54.4972 151.333 54.4306C151.333 54.3639 200.067 52.1632 200.133 52.1632C170.467 97.0299 176.267 109.43 171.333 98.4966Z" fill="#AC182E"/>
</svg>
