<svg width="410" height="242" viewBox="0 0 410 242" fill="none" xmlns="http://www.w3.org/2000/svg">
<path opacity="0.2" fill-rule="evenodd" clip-rule="evenodd" d="M229.57 2.29606C227.833 6.79096 245.662 64.2156 248.77 64.2156C254.256 64.2156 253.525 56.2349 245.754 31.6505C237.16 4.31418 232.222 -4.76736 229.57 2.29606ZM266.416 27.8895C263.582 30.0911 265.319 53.1159 268.519 55.0423C272.725 57.7026 274.919 53.2077 274.828 41.9246C274.828 28.7151 271.81 23.7615 266.416 27.8895ZM311.856 35.6868C294.576 41.9246 278.485 59.1703 284.976 64.3991C288.451 67.1511 290.462 66.4172 296.771 59.7207C309.845 45.9608 331.331 35.8702 332.977 42.5667C334.074 47.0616 331.514 51.4648 323.102 59.7207C308.016 74.3979 319.903 74.2145 328.04 68.6188C339.926 60.5463 352.542 56.6018 353.365 60.7298C355.285 69.9948 343.674 77.5169 336.817 81.8283C331.148 85.4059 335.354 87.9744 339.742 86.2314C343.765 84.672 351.08 81.0027 355.56 78.159C369.091 69.6278 362.417 52.1986 345.594 52.1986H340.84L341.388 47.7955C342.668 36.971 326.668 30.3663 311.856 35.6868ZM175.627 37.5214C166.941 41.4659 169.318 47.5203 168.861 49.3549L161.73 46.3277C135.489 34.9529 107.603 34.7694 99.5577 45.7774C89.5919 59.5373 100.198 81.0027 122.232 91.7354C136.404 98.6154 139.056 93.8453 125.067 86.7818C109.89 79.0763 103.123 59.3538 112.541 49.997C121.135 41.3742 148.107 44.1261 166.118 55.501C180.564 64.6743 183.581 66.2337 186.598 66.7841C191.17 67.518 190.896 65.8668 185.684 61.1884C178.461 54.7671 177.455 51.2813 181.387 46.8781C188.153 39.3561 204.885 43.2088 217.868 55.3176C226.005 62.8396 232.313 65.4999 233.502 61.8306C234.142 59.9959 222.439 48.5293 216.13 44.7683C202.873 36.7875 184.495 33.5769 175.627 37.5214ZM32.8144 79.168C36.3801 80.7275 92.7005 101.918 102.392 102.927C114.735 104.211 107.239 96.9642 107.239 96.8724C96.9072 88.9834 53.6602 75.6822 37.0201 74.3062C31.0772 73.8475 25.2257 75.8657 32.8144 79.168ZM392.863 89.1669C347.057 92.9279 348.062 92.7445 349.342 97.6063C350.897 103.844 357.754 103.844 390.577 97.698C419.469 92.1941 412.611 87.5157 392.863 89.1669ZM54.7574 100.45C50.1859 103.752 53.6612 105.404 76.1527 110.541C89.41 113.568 99.7406 111.825 90.5062 108.156C71.6718 100.725 58.4146 97.8815 54.7574 100.45ZM354.462 107.238C343.765 109.348 353.64 115.586 367.72 115.586C389.663 115.586 388.108 108.156 365.891 106.963C361.32 106.78 356.2 106.871 354.462 107.238ZM23.8543 124.301C9.95705 127.878 2.82558 133.107 0.631276 141.363C-3.11732 155.214 10.5065 175.212 23.5809 175.212C24.9524 175.212 25.0429 176.038 24.6772 181.633C22.5743 211.538 54.9402 215.299 80.5404 188.238C87.7633 180.533 81.7299 179.065 70.667 185.761C39.0325 204.934 18.0943 190.623 48.6316 170.717C54.9402 166.589 56.1288 164.113 53.2031 161.177C51.3745 159.342 51.2831 159.342 40.403 161.636C28.7915 164.113 20.9295 163.654 14.438 160.076C-3.11641 150.536 26.14 130.447 57.6831 130.355C65.0889 130.355 66.0946 129.713 63.626 126.41C60.0603 121.732 38.0258 120.631 23.8543 124.301ZM355.834 125.034C354.371 128.337 354.28 128.153 363.605 135.675C377.228 146.683 352.085 163.379 325.022 161.269C319.171 160.81 317.525 164.296 320.999 169.708C332.519 187.229 309.479 196.769 279.308 186.954C264.587 182.184 270.896 191.541 286.073 197.045C308.291 205.117 331.971 193.742 332.062 175.029V169.708H337.64C357.206 169.708 377.777 154.114 377.777 139.253C377.685 129.162 359.217 117.145 355.834 125.034ZM233.136 182.184C231.947 185.303 239.627 214.107 244.107 225.849C247.49 234.655 257.456 235.664 248.679 214.199C240.633 194.293 235.97 174.845 233.136 182.184ZM245.845 181.45C240.907 183.193 254.896 209.245 260.747 209.245C264.588 209.245 263.582 205.117 256.816 193.192C250.965 182.918 248.679 180.441 245.845 181.45ZM212.93 185.028C212.29 185.303 209.365 189.064 206.439 193.467C194.005 212.089 175.261 218.418 175.261 204.016C175.261 201.081 174.073 199.98 170.782 199.98C169.959 199.98 165.935 202.457 161.912 205.484C139.604 222.454 122.689 216.492 131.558 196.035C135.855 186.128 133.387 185.028 126.896 189.706C121.227 193.742 117.935 205.3 122.415 211.997C131.009 224.931 152.313 225.849 166.668 214.107C170.325 211.08 170.781 210.988 172.244 212.272C178.004 217.501 189.616 218.969 197.021 215.483C204.61 211.813 219.056 193.742 219.056 187.963C219.147 185.486 215.764 183.927 212.93 185.028ZM90.4148 195.118C71.8547 210.071 80.5404 209.795 86.3005 206.218C94.3463 201.173 107.695 188.789 106.232 186.404C104.952 184.11 102.118 185.67 90.4148 195.118ZM105.592 195.852C81.3633 217.226 65.6375 240.893 75.0547 241.994C80.6319 242.636 120.038 195.21 117.386 190.99C115.649 188.238 112.906 189.339 105.592 195.852Z" fill="#00A9A6"/>
</svg>
