<svg width="241" height="134" viewBox="0 0 241 134" fill="none" xmlns="http://www.w3.org/2000/svg">
<path d="M225.394 34.689C226.263 34.3511 227.118 34.8396 227.871 36.0963C228.916 37.8119 228.826 38.3412 227.559 38.0362C226.42 37.7658 224.623 34.984 225.394 34.689Z" fill="#1FC9C4"/>
<path d="M226.205 31.9835C226.318 31.564 227.935 31.5304 228.463 31.9486C229.351 32.6362 233.798 38.5667 234.158 38.8361C235.039 39.4872 233.31 39.8714 232.263 39.2622C231.308 38.695 226.084 32.4353 226.205 31.9835Z" fill="#1FC9C4"/>
<path d="M235.267 16.7531C234.053 16.445 233.842 15.9389 234.769 15.5128C236.571 14.6638 237.829 14.5512 238.629 15.1806C239.577 15.9017 236.906 17.1575 235.267 16.7531Z" fill="#1FC9C4"/>
<path d="M215.945 13.4091C215.069 13.1917 213.712 11.7384 213.943 11.2641C214.362 10.408 216.17 10.8923 216.896 12.0554C217.685 13.3046 217.369 13.7734 215.945 13.4091Z" fill="#1FC9C4"/>
<path d="M231.81 15.3253C230.151 15.192 230.472 14.4477 233.168 12.1954C238.137 8.04424 239.693 7.07759 240.453 7.66176C241.478 8.42058 233.543 15.4436 231.81 15.3253Z" fill="#1FC9C4"/>
<path d="M207.919 6.31206C208.619 6.8628 213.463 12.3461 214.624 13.8853C214.878 14.23 213.643 14.3834 212.838 14.0984C212.032 13.8133 211.769 13.5698 209.044 10.505C207.438 8.69082 205.946 7.02852 205.743 6.81843C204.776 5.78096 206.692 5.34315 207.919 6.31206Z" fill="#1FC9C4"/>
<path d="M208.769 28.8333C209.856 28.2599 211.187 28.1324 211.431 28.5782C211.585 28.8442 210.995 29.2395 210.046 29.4869C208.52 29.8908 207.624 29.4259 208.769 28.8333Z" fill="#1FC9C4"/>
<path d="M213.351 20.7043C212.6 20.019 212.651 19.8942 213.895 19.1898C217.704 17.0453 222.046 10.9101 224.401 4.3808C225.255 2.03263 228.107 0.358355 227.766 6.40688C227.346 14.0426 228.957 22.3608 231.126 23.7549C232.585 24.6993 232.118 25.7329 230.439 25.2832C227.954 24.6174 225.837 26.4539 223.485 31.3583C221.956 34.5461 219.499 39.4568 219.328 39.7052C218.913 40.2858 216.422 40.7423 216.991 36.2943C217.81 30.0106 216.221 23.2894 213.351 20.7043ZM216.341 20.71C218.498 23.3115 220.147 27.6793 220.076 30.6526C220.065 31.3413 220.268 31.292 220.609 30.5359C222.32 26.6703 224.307 24.6087 226.908 23.9392L227.914 23.6725C226.251 20.5809 225.44 19.4124 224.773 11.1222C224.747 10.7692 224.718 10.8133 223.614 12.6101C221.538 16.0319 219.473 18.3151 217.242 19.6716C216.12 20.374 216.091 20.4181 216.341 20.71Z" fill="#1FC9C4"/>
<path d="M214.016 30.5506C214.41 30.9503 214.212 31.1739 212.373 32.5492C209.152 34.9548 207.635 35.5168 207.056 34.5143C206.784 34.0437 207.069 33.7567 209.407 32.0657C212.303 29.9707 213.155 29.6973 214.016 30.5506Z" fill="#1FC9C4"/>
<path d="M17.3476 124.463C16.3474 124.09 15.3561 124.647 14.4762 126.067C13.2549 128.006 13.3543 128.601 14.8201 128.247C16.1365 127.933 18.235 124.788 17.3476 124.463Z" fill="#1FC9C4"/>
<path d="M16.4337 121.427C16.3076 120.956 14.4404 120.932 13.8274 121.407C12.7962 122.188 7.61119 128.897 7.19304 129.203C6.17081 129.943 8.16338 130.36 9.37789 129.666C10.4852 129.02 16.5697 121.934 16.4337 121.427Z" fill="#1FC9C4"/>
<path d="M6.10194 104.373C7.50686 104.016 7.75398 103.445 6.68731 102.974C4.61484 102.034 3.16329 101.918 2.2344 102.633C1.1334 103.452 4.20682 104.842 6.10194 104.373Z" fill="#1FC9C4"/>
<path d="M28.4389 100.446C29.4518 100.194 31.0314 98.5475 30.7689 98.0159C30.2918 97.0566 28.201 97.6168 27.3528 98.9313C26.4306 100.343 26.7913 100.868 28.4389 100.446Z" fill="#1FC9C4"/>
<path d="M10.1054 102.737C12.0222 102.573 11.6585 101.739 8.56496 99.2283C2.8635 94.6015 1.07513 93.5275 0.19253 94.1912C-0.996959 95.0535 8.10427 102.885 10.1054 102.737Z" fill="#1FC9C4"/>
<path d="M37.7656 92.3941C36.9528 93.0195 31.3138 99.2289 29.9597 100.97C29.664 101.36 31.0879 101.522 32.0206 101.195C32.9532 100.867 33.2593 100.591 36.4309 97.12C38.3014 95.0656 40.0378 93.183 40.2742 92.945C41.3998 91.7697 39.1914 91.2937 37.7656 92.3941Z" fill="#1FC9C4"/>
<path d="M36.5922 117.734C35.3415 117.098 33.8055 116.966 33.5203 117.47C33.3407 117.77 34.0187 118.21 35.1115 118.48C36.8704 118.921 37.9086 118.391 36.5922 117.734Z" fill="#1FC9C4"/>
<path d="M31.3716 108.629C32.2438 107.852 32.1863 107.712 30.7563 106.93C26.3773 104.551 21.4169 97.6871 18.7541 90.363C17.7883 87.729 14.5091 85.8702 14.8508 92.6708C15.2705 101.256 13.3396 110.627 10.8236 112.213C9.13084 113.288 9.6614 114.447 11.6028 113.926C14.4775 113.156 16.9069 115.204 19.5802 120.7C21.3177 124.273 24.1127 129.776 24.3072 130.053C24.7814 130.703 27.6543 131.195 27.0352 126.197C26.1436 119.136 28.0357 111.562 31.3716 108.629ZM27.9189 108.662C25.4066 111.606 23.4656 116.533 23.5212 119.877C23.5287 120.652 23.2942 120.598 22.9071 119.751C20.9656 115.417 18.6882 113.115 15.6913 112.384L14.5328 112.093C16.4783 108.601 17.4247 107.28 18.2658 97.9491C18.2994 97.5518 18.3327 97.6011 19.592 99.6128C21.959 103.444 24.3231 105.994 26.8877 107.501C28.1772 108.282 28.2105 108.331 27.9189 108.662Z" fill="#1FC9C4"/>
<path d="M30.5194 119.711C30.0605 120.164 30.2875 120.413 32.3985 121.945C36.0973 124.623 37.8438 125.242 38.5207 124.109C38.8384 123.578 38.5125 123.257 35.8273 121.375C32.5015 119.044 31.5207 118.743 30.5194 119.711Z" fill="#1FC9C4"/>
</svg>
