<svg width="46" height="47" viewBox="0 0 46 47" fill="none" xmlns="http://www.w3.org/2000/svg">
<path d="M27.5133 37.456C28.3822 37.118 29.2371 37.6065 29.99 38.8633C31.035 40.5788 30.945 41.1082 29.6777 40.8032C28.5395 40.5328 26.7425 37.751 27.5133 37.456Z" fill="#1FC9C4"/>
<path d="M28.3245 34.7505C28.4369 34.3309 30.0543 34.2973 30.5822 34.7155C31.4703 35.4031 35.9172 41.3336 36.2774 41.6031C37.158 42.2541 35.4293 42.6384 34.3819 42.0291C33.4269 41.4619 28.2034 35.2023 28.3245 34.7505Z" fill="#1FC9C4"/>
<path d="M37.3864 19.5201C36.1718 19.2119 35.9616 18.7059 36.8886 18.2798C38.69 17.4307 39.9481 17.3182 40.748 17.9476C41.6963 18.6687 39.0249 19.9245 37.3864 19.5201Z" fill="#1FC9C4"/>
<path d="M18.0642 16.176C17.1885 15.9587 15.8311 14.5054 16.062 14.0311C16.4816 13.175 18.2889 13.6592 19.015 14.8223C19.8045 16.0716 19.4886 16.5404 18.0642 16.176Z" fill="#1FC9C4"/>
<path d="M33.9294 18.0922C32.2702 17.959 32.5907 17.2147 35.2869 14.9624C40.2561 10.8112 41.8123 9.84457 42.5724 10.4287C43.597 11.1876 35.6618 18.2106 33.9294 18.0922Z" fill="#1FC9C4"/>
<path d="M10.0385 9.07901C10.7384 9.62975 15.582 15.1131 16.7434 16.6522C16.997 16.9969 15.7625 17.1504 14.9568 16.8653C14.1511 16.5803 13.8878 16.3368 11.1634 13.2719C9.55679 11.4578 8.06512 9.79547 7.86198 9.58538C6.89471 8.54791 8.81074 8.1101 10.0385 9.07901Z" fill="#1FC9C4"/>
<path d="M10.8877 31.6002C11.9753 31.0269 13.3066 30.8993 13.5503 31.3451C13.7039 31.6111 13.1137 32.0064 12.1653 32.2539C10.6389 32.6578 9.74305 32.1929 10.8877 31.6002Z" fill="#1FC9C4"/>
<path d="M15.4698 23.4713C14.7195 22.7859 14.7702 22.6612 16.014 21.9567C19.8228 19.8122 24.1648 13.677 26.5197 7.14775C27.3737 4.79958 30.2264 3.12531 29.8855 9.17383C29.4653 16.8095 31.076 25.1278 33.2448 26.5218C34.704 27.4663 34.2368 28.4999 32.5586 28.0502C30.0736 27.3843 27.9557 29.2209 25.6039 34.1252C24.0752 37.3131 21.6179 42.2237 21.4476 42.4721C21.0325 43.0527 18.5408 43.5092 19.11 39.0612C19.9289 32.7776 18.34 26.0563 15.4698 23.4713ZM18.4604 23.477C20.617 26.0784 22.2658 30.4463 22.1955 33.4195C22.184 34.1082 22.3874 34.059 22.7284 33.3029C24.4387 29.4373 26.4266 27.3757 29.0273 26.7062L30.0327 26.4394C28.3706 23.3479 27.5595 22.1793 26.8925 13.8891C26.8661 13.5361 26.8369 13.5802 25.7328 15.3771C23.6572 18.7988 21.5926 21.082 19.3612 22.4385C18.2391 23.141 18.21 23.1851 18.4604 23.477Z" fill="#1FC9C4"/>
<path d="M16.1347 33.3176C16.5291 33.7173 16.3309 33.9409 14.4923 35.3161C11.2707 37.7217 9.75374 38.2838 9.17491 37.2812C8.90321 36.8106 9.18766 36.5236 11.526 34.8326C14.4222 32.7376 15.2737 32.4642 16.1347 33.3176Z" fill="#1FC9C4"/>
</svg>
