<svg width="52" height="53" viewBox="0 0 52 53" fill="none" xmlns="http://www.w3.org/2000/svg">
<path d="M19.3083 39.2454C19.1821 38.7744 17.3149 38.7505 16.7019 39.2254C15.6707 40.0065 10.4857 46.7154 10.0676 47.0216C9.04532 47.7615 11.0379 48.1789 12.2524 47.4846C13.3598 46.8384 19.4442 39.7526 19.3083 39.2454Z" fill="#BB211F"/>
<path d="M8.97646 22.1915C10.3814 21.8344 10.6285 21.2634 9.56182 20.7921C7.48935 19.8525 6.03781 19.7366 5.10891 20.4515C4.00791 21.2707 7.08133 22.6604 8.97646 22.1915Z" fill="#BB211F"/>
<path d="M31.3134 18.2643C32.3263 18.0123 33.9059 16.3659 33.6435 15.8344C33.1663 14.875 31.0755 15.4353 30.2273 16.7498C29.3051 18.1617 29.6658 18.6864 31.3134 18.2643Z" fill="#BB211F"/>
<path d="M12.9799 20.5557C14.8967 20.3916 14.533 19.5572 11.4395 17.0468C5.73801 12.42 3.94964 11.346 3.06704 12.0097C1.87755 12.872 10.9788 20.7037 12.9799 20.5557Z" fill="#BB211F"/>
<path d="M40.6401 10.2125C39.8274 10.838 34.1883 17.0474 32.8342 18.7886C32.5385 19.1785 33.9624 19.3406 34.8951 19.013C35.8277 18.6855 36.1338 18.4093 39.3054 14.9385C41.1759 12.8841 42.9123 11.0015 43.1487 10.7635C44.2743 9.58818 42.066 9.11214 40.6401 10.2125Z" fill="#BB211F"/>
<path d="M39.4667 35.5524C38.216 34.9168 36.68 34.7848 36.3948 35.2883C36.2152 35.5888 36.8932 36.0284 37.986 36.2986C39.7449 36.7398 40.7832 36.2092 39.4667 35.5524Z" fill="#BB211F"/>
<path d="M34.2461 26.448C35.1183 25.6707 35.0608 25.5308 33.6308 24.749C29.2518 22.3695 24.2914 15.5057 21.6286 8.18149C20.6628 5.54752 17.3836 3.6887 17.7253 10.4893C18.145 19.0746 16.2141 28.4451 13.6981 30.0317C12.0054 31.1066 12.5359 32.2652 14.4773 31.745C17.352 30.9747 19.7814 33.0224 22.4547 38.5188C24.1923 42.0914 26.9872 47.5941 27.1817 47.872C27.6559 48.5215 30.5288 49.0137 29.9098 44.0152C29.0182 36.9543 30.9103 29.3803 34.2461 26.448ZM30.7934 26.48C28.2811 29.4247 26.3401 34.3519 26.3957 37.6957C26.4032 38.4703 26.1688 38.4167 25.7816 37.5691C23.8401 33.2356 21.5627 30.9337 18.5658 30.203L17.4073 29.9115C19.3528 26.4198 20.2992 25.0984 21.1404 15.7676C21.174 15.3703 21.2072 15.4196 22.4665 17.4314C24.8336 21.2624 27.1976 23.813 29.7622 25.3197C31.0517 26.1002 31.085 26.1495 30.7934 26.48Z" fill="#BB211F"/>
<path d="M33.3939 37.5291C32.9351 37.9821 33.1621 38.2319 35.273 39.7631C38.9718 42.4413 40.7183 43.0606 41.3952 41.9279C41.7129 41.3962 41.387 41.0758 38.7018 39.1938C35.376 36.8621 34.3952 36.5619 33.3939 37.5291Z" fill="#BB211F"/>
</svg>
