<svg width="34" height="34" viewBox="0 0 34 34" fill="none" xmlns="http://www.w3.org/2000/svg">
<path d="M11.7286 3.90909C11.4163 4.02545 11.1104 4.152 10.8108 4.28873M29.6806 23.256C29.8289 22.9341 29.9657 22.6063 30.0908 22.2727M26.4529 27.7127C26.7031 27.48 26.9441 27.2381 27.1759 26.9869M21.7548 30.632C22.0369 30.5253 22.3148 30.4104 22.5882 30.2873M17.2268 31.5367C16.8912 31.5484 16.5548 31.5484 16.2173 31.5367M10.8719 30.2945C11.1356 30.4138 11.4028 30.5244 11.6733 30.6262M6.3424 27.0669C6.54022 27.2773 6.74531 27.4819 6.95767 27.6807M3.37513 22.3309C3.4847 22.6179 3.60252 22.9006 3.72858 23.1789M2.46167 17.7345C2.45217 17.4311 2.45217 17.1274 2.46167 16.824M3.36349 12.2538C3.47113 11.9697 3.58749 11.6899 3.71258 11.4145M6.31767 7.51636C6.5281 7.29139 6.74579 7.0737 6.97076 6.86327M19.1817 17C19.1817 17.4315 19.0537 17.8534 18.814 18.2122C18.5742 18.571 18.2335 18.8506 17.8348 19.0157C17.4361 19.1809 16.9974 19.2241 16.5742 19.1399C16.151 19.0557 15.7622 18.8479 15.4571 18.5428C15.1519 18.2376 14.9441 17.8489 14.86 17.4257C14.7758 17.0024 14.819 16.5637 14.9841 16.1651C15.1493 15.7664 15.4289 15.4256 15.7877 15.1859C16.1465 14.9461 16.5683 14.8182 16.9999 14.8182M19.1817 17C19.1817 16.4213 18.9518 15.8664 18.5426 15.4572C18.1335 15.0481 17.5785 14.8182 16.9999 14.8182M19.1817 17H22.818M16.9999 14.8182V8.27273M31.5453 17C31.5453 8.96655 25.0333 2.45455 16.9999 2.45455M33 17C33 25.8366 25.8366 33 17 33C8.16344 33 1 25.8366 1 17C1 8.16344 8.16344 1 17 1C25.8366 1 33 8.16344 33 17Z" stroke="white" stroke-width="2" stroke-linecap="round"/>
</svg>
