<svg width="33" height="23" viewBox="0 0 33 23" fill="none" xmlns="http://www.w3.org/2000/svg">
<path d="M16.5 6.75C15.3065 6.75 14.1619 7.22411 13.318 8.06802C12.4741 8.91193 12 10.0565 12 11.25C12 12.4435 12.4741 13.5881 13.318 14.432C14.1619 15.2759 15.3065 15.75 16.5 15.75C17.6935 15.75 18.8381 15.2759 19.682 14.432C20.5259 13.5881 21 12.4435 21 11.25C21 10.0565 20.5259 8.91193 19.682 8.06802C18.8381 7.22411 17.6935 6.75 16.5 6.75ZM16.5 18.75C14.5109 18.75 12.6032 17.9598 11.1967 16.5533C9.79018 15.1468 9 13.2391 9 11.25C9 9.26088 9.79018 7.35322 11.1967 5.9467C12.6032 4.54018 14.5109 3.75 16.5 3.75C18.4891 3.75 20.3968 4.54018 21.8033 5.9467C23.2098 7.35322 24 9.26088 24 11.25C24 13.2391 23.2098 15.1468 21.8033 16.5533C20.3968 17.9598 18.4891 18.75 16.5 18.75ZM16.5 0C9 0 2.595 4.665 0 11.25C2.595 17.835 9 22.5 16.5 22.5C24 22.5 30.405 17.835 33 11.25C30.405 4.665 24 0 16.5 0Z" fill="#2F3C60"/>
</svg>
