<svg width="27" height="27" viewBox="0 0 27 27" fill="none" xmlns="http://www.w3.org/2000/svg">
<path d="M24.3055 18.375L20.4955 17.94C20.0475 17.8874 19.5934 17.937 19.1673 18.0851C18.7413 18.2332 18.3543 18.4759 18.0355 18.795L15.2755 21.555C11.0176 19.3889 7.5566 15.9279 5.39051 11.67L8.16551 8.895C8.81051 8.25 9.12551 7.35 9.02051 6.435L8.58551 2.655C8.50078 1.92314 8.14971 1.24804 7.5992 0.758394C7.0487 0.268749 6.33726 -0.00120011 5.60051 4.01093e-06H3.00551C1.31051 4.01093e-06 -0.0994898 1.41 0.00551022 3.105C0.80051 15.915 11.0455 26.145 23.8405 26.94C25.5355 27.045 26.9455 25.635 26.9455 23.94V21.345C26.9605 19.83 25.8205 18.555 24.3055 18.375Z" fill="#2F3C60"/>
</svg>
